PathFileType	4	(X/Y/Z)	pose_F01_0-87.trc
DataRate	CameraRate	NumFrames	NumMarkers	Units	OrigDataRate	OrigDataStartFrame	OrigNumFrames
30	30	6	21	m	30	24	87
Frame#	Time	CHip			RHip			RKnee			RAnkle			RBigToe			RSmallToe			RHeel			LHip			LKnee			LAnkle			LBigToe			LSmallToe			LHeel			Neck			Nose			RShoulder			RElbow			RWrist			LShoulder			LElbow			LWrist			
		X1	Y1	Z1	X2	Y2	Z2	X3	Y3	Z3	X4	Y4	Z4	X5	Y5	Z5	X6	Y6	Z6	X7	Y7	Z7	X8	Y8	Z8	X9	Y9	Z9	X10	Y10	Z10	X11	Y11	Z11	X12	Y12	Z12	X13	Y13	Z13	X14	Y14	Z14	X15	Y15	Z15	X16	Y16	Z16	X17	Y17	Z17	X18	Y18	Z18	X19	Y19	Z19	X20	Y20	Z20	X21	Y21	Z21	
24	0.8	-0.2415365549141321	1.8854703921304075	-0.5277032839422974	-0.2557469285976822	1.8831707473061576	-0.45925591869291266	-0.2633363608194483	1.7323627573838647	-0.4242633017016746													-0.22607048697352214	1.8888910965180885	-0.5876863486431544	-0.21893114266193114	1.732628206032668	-0.5620834195730047	-0.21757926674922365	1.5892771590507346	-0.5583177944430922	-0.21557577330057157	1.554187114085462	-0.6425378398573861	-0.2052425936686741	1.566166387139076	-0.6506763696896309	-0.21898222569384346	1.5768462875932698	-0.5316458210499613	-0.24013912237341037	2.0524973522459096	-0.5262491311215596	-0.24853219377985777	2.1221476489275823	-0.5869658934345894	-0.2614826259374148	2.049240068895313	-0.43442550148198705	-0.26900458711120295	1.960325381996509	-0.40231262318366307	-0.27984151165226956	1.885332929057924	-0.39359742868439357	-0.2138631647069491	2.0545751335395486	-0.6199975355879813	-1.4890718106461662	1.8762189542292964	0.7548889058127726	-0.20601267228892173	1.8858984886971881	-0.6416006763135772
25	0.8333333333333334	-0.24066923721324399	1.886212318407592	-0.5246968623269396	-0.25663254138563507	1.8822177110681566	-0.4541566215028627	-0.26208235325923096	1.7301190090742662	-0.4252892164445518													-0.2260609200664677	1.88870934849394	-0.5875593505466887	-0.2223822632188175	1.735934054979483	-0.5629408592423473	-0.21761424970416093	1.5894305381692395	-0.558287825925269	-0.21475108333816664	1.5573010366081066	-0.6396705510746341	-0.20532595704367657	1.566456066372128	-0.6506184122343903	-0.21848579407514962	1.576821941564634	-0.5300730531855015	-0.2401402860022835	2.0524934705326228	-0.5262325430803695	-0.24851922712625663	2.120881584990687	-0.5864495142856274	-0.26242910563569294	2.0493958626510755	-0.43744452428468455	-0.26834096581987527	1.9638526049426308	-0.40079784270122876	-0.28068165138901485	1.8908349517635623	-0.3950112350878852	-0.2138453495031196	2.0546932126835826	-0.6198283328055828	-1.4890718106461662	1.8762189542292964	0.7548889058127726	-0.20601267228892173	1.8858984886971881	-0.6416006763135772
26	0.8666666666666667	-0.24062031708996462	1.8865153211931607	-0.5332527535489435	-0.25589171850458753	1.8816257972503743	-0.45930620418145335	-0.2626423872048279	1.729541926973695	-0.4224814934610436													-0.22430645489373238	1.8884320530595335	-0.5900017131278739	-0.22048255155186838	1.7372504772519293	-0.5652323645455923	-0.21607692296173395	1.589476355808648	-0.5596471786699356	-0.21566337959024362	1.5545137451634157	-0.6424700915428516	-0.20547552513753353	1.564731622305366	-0.6501168201943397	-0.21876925288811827	1.5758388374890986	-0.5296080859514839	-0.24013377264061436	2.0524903740483387	-0.5262053052415651	-0.24850595097743597	2.1209263990708562	-0.5864724979816617	-0.2614953716499257	2.049228427282257	-0.4343802419571295	-0.2689324826736232	1.9605333116694104	-0.4024158127647922	-0.2798456523326248	1.8826680495259083	-0.39320517989736514	-0.21381578167765597	2.054628547120176	-0.6199509795739612	-1.4890718106461662	1.8762189542292964	0.7548889058127726	-0.20601267228892173	1.8858984886971881	-0.6416006763135772
27	0.9	-0.24073227754557916	1.8875416003526182	-0.5249655204384551	-0.25501304549431575	1.8823833744931524	-0.456316954080519	-0.26320242115042486	1.7289648448731234	-0.4196737704775353													-0.22428808501074393	1.888556064370949	-0.5898519128263766	-0.22204073198498891	1.7360690657992033	-0.5676675905529661	-0.21603517030618655	1.5893977045220673	-0.5595948461253996	-0.21464699492602	1.5568474434343282	-0.6396576729108742	-0.20546123998321575	1.5675459776884106	-0.6503633967560023	-0.21701360477252218	1.5774715706254907	-0.5314137855106373	-0.2401500355244661	2.0525025310782548	-0.5262152944056104	-0.2484954289988683	2.1221977691546527	-0.5869782719034775	-0.2614748164450974	2.049235536155242	-0.4344608242521508	-0.2692335120792522	1.9616722348710116	-0.40314337032656916	-0.27838255246096444	1.8817163930354488	-0.3951216319367045	-0.21386728823866208	2.054630826074215	-0.6199069336597802	-1.4890718106461662	1.8762189542292964	0.7548889058127726	-0.20601267228892173	1.8858984886971881	-0.6416006763135772
28	0.9333333333333333	-0.24150286994100031	1.8853029541776347	-0.5276899040227638	-0.2546690829903542	1.8813198656470906	-0.4559714023890198	-0.26367405574357694	1.7301990090715629	-0.4214317097510161													-0.22605759745989765	1.8887455401762112	-0.5876738935381358	-0.22045593057835425	1.737061640383706	-0.5652376696667055	-0.2157566783618963	1.5906225104192926	-0.5601465848472617	-0.21441610522127433	1.5554040239335756	-0.6399412854541151	-0.2051993710124676	1.566050120587015	-0.6506722086752128	-0.2186988624057985	1.5756695892981474	-0.5295911324697663	-0.2401522921441091	2.0524918299031856	-0.5262411533836681	-0.24852750956819514	2.1209282511745227	-0.5864102052508565	-0.2624589188988593	2.0493930579112978	-0.43741997536076693	-0.2683147907862289	1.9639162290319339	-0.40087956707569466	-0.27959406654955343	1.8881733718373224	-0.39142311922319034	-0.213852546756118	2.054638969492849	-0.6198879953520752	-1.4890718106461662	1.8762189542292964	0.7548889058127726	-0.20601267228892173	1.8858984886971881	-0.6416006763135772
29	0.9666666666666667	-0.24381922598465425	1.8848067325812043	-0.5256374389247951	-0.25797082912186503	1.8802219597469263	-0.4569442895682957	-0.26414569033672897	1.7314331732700023	-0.42318964902449696													-0.22645307368870518	1.88625656782988	-0.587345115777075	-0.22092416296386305	1.7371281007424018	-0.5647948553951758	-0.2160604460332268	1.5894631013407758	-0.5596565669199819	-0.2154628272809457	1.5562383864497589	-0.6431057882575764	-0.2053145768755461	1.5666788173793578	-0.6507831416482264	-0.2172097064405371	1.575493437844116	-0.5311922744332696	-0.24014714201706175	2.0525131034117594	-0.5261564078043346	-0.248513220409315	2.122171000896918	-0.5869174566957611	-0.26146504503631207	2.049244776316403	-0.43441535630531536	-0.26810196789246254	1.96062989661705	-0.3995770392632622	-0.2802276124207255	1.8820007772417704	-0.39318805927159667	-0.21390925277801218	2.054642431321612	-0.6198297480740793	-1.4890718106461662	1.8762189542292964	0.7548889058127726	-0.20601267228892173	1.8858984886971881	-0.6416006763135772
